<?xml version="1.0" encoding="utf-8"?>
<!-- Generator: Adobe Illustrator 22.1.0, SVG Export Plug-In . SVG Version: 6.00 Build 0)  -->
<svg version="1.1" id="Слой_1" xmlns="http://www.w3.org/2000/svg" xmlns:xlink="http://www.w3.org/1999/xlink" x="0px" y="0px"
	 viewBox="0 0 512 512" style="enable-background:new 0 0 512 512;" xml:space="preserve">
<style type="text/css">
	.st0{fill:#FFFFFF;}
	.st1{fill:#409C6A;}
</style>
<rect x="35.2" y="58.2" class="st0" width="425.2" height="387.2"/>
<path id="polytechLogo" class="st1" d="M432.6,58.2c11.3,4.8,30.6,33.8,26.3,65.5c-22,17.7-48.3,30.1-73.6,33.8v201.9h75.2
	c0,31.1-4.8,55.8-10.2,65H312.8V160.8h-95.6v157.4c0,79.5-44.6,118.1-101.5,118.1c-16.1,0-34.9-2.2-51.6-7
	c-7.5-10.2-11.3-40.8-12.4-78.9c37.6,18.3,89.1,26.8,93.4-32.2V171c-57.5,5.9-78.4,46.2-98.3,73c0.5-36,2.2-68.7,4.3-90.8
	C90.5,110.8,134.5,91,221.5,91h124.1C375.6,91.5,405.2,80.2,432.6,58.2 M255.9,0.7c-111.7,0-156.8,7-156.8,7
	C51.3,9.9,17.4,42.6,12.6,98.5c0,0-8.1,73-8.1,157.9s8.1,157.9,8.1,157.9c4.8,55.8,38.7,89.1,86.5,90.8c0,0,45.1,7,156.8,7
	s156.8-7,156.8-7c47.8-2.2,81.6-34.9,86.5-90.8c0,0,8.1-70.4,8.1-157.9c0-84.3-8.1-157.9-8.1-157.9c-4.8-55.8-38.7-89.1-86.5-90.8
	C412.7,7.2,367.6,0.7,255.9,0.7"/>
</svg>
